<?xml version="1.0" encoding="utf-8"?>
<!-- Generator: Adobe Illustrator 16.0.0, SVG Export Plug-In . SVG Version: 6.00 Build 0)  -->
<!DOCTYPE svg PUBLIC "-//W3C//DTD SVG 1.1//EN" "http://www.w3.org/Graphics/SVG/1.1/DTD/svg11.dtd">
<svg version="1.1" id="Layer_1" xmlns="http://www.w3.org/2000/svg" xmlns:xlink="http://www.w3.org/1999/xlink" x="0px" y="0px"
	 width="283.46px" height="283.46px" viewBox="0 0 283.46 283.46" enable-background="new 0 0 283.46 283.46" xml:space="preserve">
<path fill="#FF8A00" d="M31.496,47.243C14.124,47.243,0,61.367,0,78.739v31.496c0,4.331,3.642,7.727,7.726,9.153
	c9.252,3.199,15.896,12.008,15.896,22.342c0,10.334-6.644,19.144-15.896,22.342C3.642,165.5,0,168.895,0,173.226v31.495
	c0,17.372,14.124,31.495,31.496,31.495h220.469c17.371,0,31.496-14.123,31.496-31.495v-31.495c0-4.331-3.643-7.727-7.727-9.154
	c-9.252-3.198-15.896-12.008-15.896-22.342c0-10.334,6.644-19.144,15.896-22.342c4.084-1.427,7.727-4.823,7.727-9.153V78.739
	c0-17.372-14.125-31.496-31.496-31.496H31.496z M62.991,102.36v78.739c0,4.331,3.543,7.874,7.874,7.874h141.73
	c4.33,0,7.873-3.543,7.873-7.874V102.36c0-4.331-3.543-7.874-7.873-7.874H70.865C66.534,94.487,62.991,98.03,62.991,102.36z
	 M47.243,94.487c0-8.71,7.038-15.748,15.748-15.748h157.477c8.711,0,15.748,7.038,15.748,15.748v94.486
	c0,8.71-7.037,15.748-15.748,15.748H62.991c-8.71,0-15.748-7.038-15.748-15.748V94.487z"/>
</svg>
