<?xml version="1.0" encoding="utf-8"?>
<!-- Generator: Adobe Illustrator 16.0.0, SVG Export Plug-In . SVG Version: 6.00 Build 0)  -->
<!DOCTYPE svg PUBLIC "-//W3C//DTD SVG 1.1//EN" "http://www.w3.org/Graphics/SVG/1.1/DTD/svg11.dtd">
<svg version="1.1" id="Layer_1" xmlns="http://www.w3.org/2000/svg" xmlns:xlink="http://www.w3.org/1999/xlink" x="0px" y="0px"
	 width="283.46px" height="283.46px" viewBox="0 0 283.46 283.46" enable-background="new 0 0 283.46 283.46" xml:space="preserve">
<rect x="0.055" width="283.461" height="283.46"/>
<path fill="#FFFFFF" d="M199.274,147.498c-0.091-16.678,7.451-29.267,22.722-38.538c-8.544-12.225-21.45-18.95-38.493-20.269
	c-16.132-1.272-33.765,9.407-40.218,9.407c-6.816,0-22.449-8.952-34.72-8.952c-25.358,0.409-52.307,20.223-52.307,60.532
	c0,11.907,2.182,24.208,6.544,36.901c5.817,16.679,26.813,57.58,48.718,56.898c11.452-0.273,19.541-8.135,34.447-8.135
	c14.451,0,21.95,8.135,34.721,8.135c22.086-0.319,41.082-37.493,46.626-54.216C197.682,175.311,199.273,148.361,199.274,147.498
	L199.274,147.498z M173.551,72.876c12.406-14.724,11.271-28.13,10.906-32.947c-10.952,0.636-23.631,7.453-30.855,15.86
	c-7.954,8.998-12.634,20.132-11.635,32.675C153.829,89.374,164.644,83.284,173.551,72.876z"/>
</svg>
