<?xml version="1.0" encoding="utf-8"?>
<!-- Generator: Adobe Illustrator 16.0.0, SVG Export Plug-In . SVG Version: 6.00 Build 0)  -->
<!DOCTYPE svg PUBLIC "-//W3C//DTD SVG 1.1//EN" "http://www.w3.org/Graphics/SVG/1.1/DTD/svg11.dtd">
<svg version="1.1" id="Layer_1" xmlns="http://www.w3.org/2000/svg" xmlns:xlink="http://www.w3.org/1999/xlink" x="0px" y="0px"
	 width="283.46px" height="283.46px" viewBox="0 0 283.46 283.46" enable-background="new 0 0 283.46 283.46" xml:space="preserve">
<path fill="#FF8A00" d="M17.716,17.716c9.799,0,17.716,7.917,17.716,17.716v186.02c0,4.873,3.986,8.858,8.858,8.858h221.453
	c9.799,0,17.717,7.917,17.717,17.716c0,9.8-7.918,17.717-17.717,17.717H44.291C19.82,265.744,0,245.923,0,221.453V35.433
	C0,25.633,7.917,17.716,17.716,17.716z M70.865,70.865c0-9.799,7.917-17.716,17.716-17.716h106.297
	c9.8,0,17.717,7.917,17.717,17.716c0,9.799-7.917,17.716-17.717,17.716H88.581C78.782,88.581,70.865,80.664,70.865,70.865z
	 M88.581,106.297h70.866c9.799,0,17.716,7.917,17.716,17.716s-7.917,17.716-17.716,17.716H88.581
	c-9.799,0-17.716-7.917-17.716-17.716S78.782,106.297,88.581,106.297z M88.581,159.447h141.73c9.8,0,17.716,7.916,17.716,17.716
	s-7.916,17.716-17.716,17.716H88.581c-9.799,0-17.716-7.916-17.716-17.716S78.782,159.447,88.581,159.447z"/>
</svg>
