<?xml version="1.0" encoding="utf-8"?>
<!-- Generator: Adobe Illustrator 16.0.0, SVG Export Plug-In . SVG Version: 6.00 Build 0)  -->
<!DOCTYPE svg PUBLIC "-//W3C//DTD SVG 1.1//EN" "http://www.w3.org/Graphics/SVG/1.1/DTD/svg11.dtd">
<svg version="1.1" id="Layer_1" xmlns="http://www.w3.org/2000/svg" xmlns:xlink="http://www.w3.org/1999/xlink" x="0px" y="0px"
	 width="283.46px" height="283.46px" viewBox="0 0 283.46 283.46" enable-background="new 0 0 283.46 283.46" xml:space="preserve">
<path fill="#FFFFFF" d="M283.46,141.73C283.46,63.446,220.013,0,141.73,0C63.446,0,0,63.446,0,141.73
	c0,66.436,45.786,122.242,107.516,137.578v-94.284H78.284V141.73h29.232v-18.657c0-48.222,21.813-70.588,69.205-70.588
	c8.969,0,24.47,1.771,30.837,3.543v39.197c-3.321-0.332-9.136-0.553-16.388-0.553c-23.252,0-32.222,8.803-32.222,31.667v15.391
	h46.284l-7.973,43.294h-38.367v97.384C229.093,273.937,283.46,214.201,283.46,141.73L283.46,141.73z"/>
</svg>
