<?xml version="1.0" encoding="utf-8"?>
<!-- Generator: Adobe Illustrator 28.0.0, SVG Export Plug-In . SVG Version: 6.00 Build 0)  -->
<svg version="1.1" id="레이어_1" xmlns="http://www.w3.org/2000/svg" xmlns:xlink="http://www.w3.org/1999/xlink" x="0px"
	 y="0px" viewBox="0 0 512 512" style="enable-background:new 0 0 512 512;" xml:space="preserve">
<style type="text/css">
	.st0{fill:#FF8A00;}
</style>
<path class="st0" d="M464,256c0-114.9-93.1-208-208-208S48,141.1,48,256s93.1,208,208,208S464,370.9,464,256z M0,256
	C0,114.6,114.6,0,256,0s256,114.6,256,256S397.4,512,256,512S0,397.4,0,256z M188.3,147.1c7.6-4.2,16.8-4.1,24.3,0.5l144,88
	c7.1,4.4,11.5,12.1,11.5,20.5s-4.4,16.1-11.5,20.5l-144,88c-7.4,4.5-16.7,4.7-24.3,0.5S176,352.9,176,344.2V168
	C176,159.3,180.7,151.3,188.3,147.1z"/>
</svg>
