<?xml version="1.0" encoding="utf-8"?>
<!-- Generator: Adobe Illustrator 16.0.0, SVG Export Plug-In . SVG Version: 6.00 Build 0)  -->
<!DOCTYPE svg PUBLIC "-//W3C//DTD SVG 1.1//EN" "http://www.w3.org/Graphics/SVG/1.1/DTD/svg11.dtd">
<svg version="1.1" id="Layer_1" xmlns="http://www.w3.org/2000/svg" xmlns:xlink="http://www.w3.org/1999/xlink" x="0px" y="0px"
	 width="283.46px" height="283.46px" viewBox="0 0 283.46 283.46" enable-background="new 0 0 283.46 283.46" xml:space="preserve">
<path fill="#FF8A00" d="M283.361,141.484c0,8.858-7.381,15.797-15.747,15.797h-15.747l0.344,78.838
	c0.099,17.47-14.025,31.643-31.496,31.643H63.041c-17.372,0-31.496-14.123-31.496-31.496v-78.984H15.748
	C6.89,157.281,0,150.391,0,141.484c0-4.429,1.477-8.366,4.921-11.811L131.1,19.685c3.445-3.445,7.382-3.937,10.827-3.937
	s7.381,0.984,10.334,3.444l125.688,110.481C281.885,133.118,283.853,137.055,283.361,141.484z M173.226,125.982
	c0-17.395-14.102-31.496-31.496-31.496s-31.496,14.101-31.496,31.496c0,17.394,14.101,31.496,31.496,31.496
	S173.226,143.376,173.226,125.982z M125.982,173.226c-21.752,0-39.37,17.617-39.37,39.369c0,4.33,3.543,7.873,7.874,7.873h94.486
	c4.331,0,7.874-3.543,7.874-7.873c0-21.752-17.617-39.369-39.369-39.369H125.982z"/>
</svg>
