<?xml version="1.0" encoding="utf-8"?>
<!-- Generator: Adobe Illustrator 16.0.0, SVG Export Plug-In . SVG Version: 6.00 Build 0)  -->
<!DOCTYPE svg PUBLIC "-//W3C//DTD SVG 1.1//EN" "http://www.w3.org/Graphics/SVG/1.1/DTD/svg11.dtd">
<svg version="1.1" id="Layer_1" xmlns="http://www.w3.org/2000/svg" xmlns:xlink="http://www.w3.org/1999/xlink" x="0px" y="0px"
	 width="283.46px" height="283.46px" viewBox="0 0 283.46 283.46" enable-background="new 0 0 283.46 283.46" xml:space="preserve">
<path fill="#FFFFFF" d="M141.785,78.062c-35.211,0-63.612,28.401-63.612,63.613s28.401,63.612,63.612,63.612
	c35.211,0,63.613-28.4,63.613-63.612S176.997,78.062,141.785,78.062z M141.785,183.031c-22.754,0-41.356-18.547-41.356-41.356
	c0-22.81,18.546-41.356,41.356-41.356c22.81,0,41.357,18.546,41.357,41.356C183.142,164.484,164.54,183.031,141.785,183.031z
	 M222.837,75.46c0,8.25-6.645,14.837-14.838,14.837c-8.249,0-14.837-6.644-14.837-14.837c0-8.193,6.644-14.837,14.837-14.837
	S222.837,67.267,222.837,75.46z M264.968,90.519c-0.941-19.875-5.48-37.481-20.041-51.986
	c-14.506-14.505-32.111-19.045-51.986-20.042c-20.484-1.163-81.882-1.163-102.367,0c-19.82,0.941-37.425,5.481-51.986,19.986
	C24.028,52.982,19.543,70.588,18.547,90.463c-1.163,20.485-1.163,81.882,0,102.366c0.941,19.876,5.481,37.481,20.042,51.986
	c14.561,14.506,32.11,19.045,51.986,20.042c20.484,1.163,81.882,1.163,102.367,0c19.875-0.941,37.48-5.481,51.986-20.042
	c14.505-14.505,19.045-32.11,20.041-51.986C266.131,172.345,266.131,111.003,264.968,90.519z M238.505,214.81
	c-4.318,10.851-12.679,19.211-23.585,23.584c-16.333,6.478-55.087,4.982-73.135,4.982s-56.858,1.439-73.135-4.982
	c-10.851-4.318-19.211-12.678-23.584-23.584c-6.478-16.332-4.983-55.087-4.983-73.135c0-18.049-1.439-56.858,4.983-73.135
	c4.318-10.851,12.678-19.211,23.584-23.584c16.332-6.478,55.086-4.983,73.135-4.983s56.859-1.439,73.135,4.983
	c10.851,4.318,19.211,12.678,23.585,23.584c6.477,16.333,4.982,55.086,4.982,73.135C243.488,159.723,244.982,198.533,238.505,214.81
	z"/>
</svg>
