<?xml version="1.0" encoding="utf-8"?>
<!-- Generator: Adobe Illustrator 28.0.0, SVG Export Plug-In . SVG Version: 6.00 Build 0)  -->
<svg version="1.1" id="Layer_1" xmlns="http://www.w3.org/2000/svg" xmlns:xlink="http://www.w3.org/1999/xlink" x="0px" y="0px"
	 viewBox="0 0 283.5 283.5" style="enable-background:new 0 0 283.5 283.5;" xml:space="preserve">
<style type="text/css">
	.st0{fill:#FF8A00;}
</style>
<path class="st0" d="M67,17.7c-16.3,0-30.5,11.1-34.4,26.9L1.1,170.7c-0.7,2.8-1.1,5.7-1.1,8.6v51c0,19.5,15.9,35.4,35.4,35.4H248
	c19.5,0,35.4-15.9,35.4-35.4v-51c0-2.9-0.3-5.8-1.1-8.6L250.9,44.6c-3.9-15.8-18.1-26.9-34.4-26.9C216.5,17.7,67,17.7,67,17.7z
	 M67,53.1h149.5L243,159.4h-28.3c-6.7,0-12.8,3.8-15.8,9.8L191,185c-3,6-9.1,9.8-15.8,9.8h-66.7c-6.7,0-12.8-3.8-15.8-9.8l-7.9-15.8
	c-3-6-9.1-9.8-15.8-9.8H40.4L67,53.1z"/>
</svg>
